<svg xmlns="http://www.w3.org/2000/svg" viewBox="0 0 440.76 53.23"><defs><style>.cls-1{fill:#fff;}</style></defs><g id="Layer_2" data-name="Layer 2"><g id="Layer_2-2" data-name="Layer 2"><path class="cls-1" d="M39.33,53.23C18.38,53.23,0,28.36,0,0H11c0,19.53,12.38,42.23,28.33,42.23C52.12,42.23,61.39,24.47,61.39,0h11C72.39,31.34,58.8,53.23,39.33,53.23Z"/><path class="cls-1" d="M100.73,53.23c-21,0-39.34-24.87-39.34-53.23h11c0,19.53,12.38,42.23,28.34,42.23,12.78,0,22.06-17.76,22.06-42.23h11C133.79,31.34,120.19,53.23,100.73,53.23Z"/><path class="cls-1" d="M162.12,53.23c-21,0-39.33-24.87-39.33-53.23h11c0,19.53,12.38,42.23,28.33,42.23,12.79,0,22.06-17.76,22.06-42.23h11C195.18,31.34,181.59,53.23,162.12,53.23Z"/><path class="cls-1" d="M223.52,53.23c-21,0-39.34-24.87-39.34-53.23h11c0,19.53,12.38,42.23,28.34,42.23,12.78,0,22.06-17.76,22.06-42.23h11C256.58,31.34,243,53.23,223.52,53.23Z"/><path class="cls-1" d="M284.91,53.23c-21,0-39.33-24.87-39.33-53.23h11c0,19.53,12.37,42.23,28.33,42.23C297.69,42.23,307,24.47,307,0h11C318,31.34,304.38,53.23,284.91,53.23Z"/><path class="cls-1" d="M346.31,53.23C325.35,53.23,307,28.36,307,0h11c0,19.53,12.38,42.23,28.34,42.23,12.78,0,22.06-17.76,22.06-42.23h11C379.37,31.34,365.77,53.23,346.31,53.23Z"/><path class="cls-1" d="M407.7,53.23c-20.95,0-39.33-24.87-39.33-53.23h11c0,19.53,12.37,42.23,28.33,42.23,12.78,0,22.06-17.76,22.06-42.23h11C440.76,31.34,427.17,53.23,407.7,53.23Z"/></g></g></svg>