<svg width="15" height="14" viewBox="0 0 15 14" fill="none" xmlns="http://www.w3.org/2000/svg">
<g clip-path="url(#clip0_198_95)">
<path d="M11.8748 12.833C12.1069 12.833 12.3295 12.7408 12.4936 12.5767C12.6576 12.4126 12.7498 12.1901 12.7498 11.958C12.7498 11.7259 12.6576 11.5034 12.4936 11.3393C12.3295 11.1752 12.1069 11.083 11.8748 11.083C11.6428 11.083 11.4202 11.1752 11.2561 11.3393C11.092 11.5034 10.9998 11.7259 10.9998 11.958C10.9998 12.1901 11.092 12.4126 11.2561 12.5767C11.4202 12.7408 11.6428 12.833 11.8748 12.833ZM6.0415 12.833C6.27357 12.833 6.49613 12.7408 6.66022 12.5767C6.82432 12.4126 6.9165 12.1901 6.9165 11.958C6.9165 11.7259 6.82432 11.5034 6.66022 11.3393C6.49613 11.1752 6.27357 11.083 6.0415 11.083C5.80944 11.083 5.58688 11.1752 5.42279 11.3393C5.25869 11.5034 5.1665 11.7259 5.1665 11.958C5.1665 12.1901 5.25869 12.4126 5.42279 12.5767C5.58688 12.7408 5.80944 12.833 6.0415 12.833Z" fill="white" stroke="white" stroke-width="1.5" stroke-linecap="round" stroke-linejoin="round"/>
<path d="M3.4165 2.33317H13.3332L12.1665 8.74984M3.4165 2.33317L4.58317 8.74984H12.1665M3.4165 2.33317C3.31909 1.94409 2.83317 1.1665 1.6665 1.1665M12.1665 8.74984H3.55067C2.51 8.74984 1.95817 9.20542 1.95817 9.9165C1.95817 10.6276 2.51 11.0832 3.55067 11.0832H11.8748" stroke="white" stroke-width="1.5" stroke-linecap="round" stroke-linejoin="round"/>
</g>
<defs>
<clipPath id="clip0_198_95">
<rect width="14" height="14" fill="white" transform="translate(0.5)"/>
</clipPath>
</defs>
</svg>
