<svg width="41" height="41" viewBox="0 0 41 41" fill="none" xmlns="http://www.w3.org/2000/svg">
<path d="M8.05769 8.06997C8.05769 6.74736 8.5831 5.47893 9.51832 4.5437C10.4535 3.60848 11.722 3.08308 13.0446 3.08308C14.3672 3.08308 15.6356 3.60848 16.5709 4.5437C17.5061 5.47893 18.0315 6.74736 18.0315 8.06997C18.0315 9.39257 17.5061 10.661 16.5709 11.5962C15.6356 12.5315 14.3672 13.0569 13.0446 13.0569C11.722 13.0569 10.4535 12.5315 9.51832 11.5962C8.5831 10.661 8.05769 9.39257 8.05769 8.06997ZM13.0446 5.57652C12.3833 5.57652 11.7491 5.83922 11.2815 6.30684C10.8138 6.77445 10.5511 7.40867 10.5511 8.06997C10.5511 8.73127 10.8138 9.36549 11.2815 9.8331C11.7491 10.3007 12.3833 10.5634 13.0446 10.5634C13.7059 10.5634 14.3401 10.3007 14.8077 9.8331C15.2753 9.36549 15.538 8.73127 15.538 8.06997C15.538 7.40867 15.2753 6.77445 14.8077 6.30684C14.3401 5.83922 13.7059 5.57652 13.0446 5.57652ZM24.9608 12.0196C24.4384 11.6211 23.9999 11.1234 23.6704 10.5549C23.341 9.98642 23.1272 9.35846 23.0412 8.70709C22.9552 8.05572 22.9988 7.39379 23.1695 6.75932C23.3401 6.12484 23.6344 5.53035 24.0356 5.00998C24.4367 4.48962 24.9367 4.05364 25.5068 3.72711C26.0769 3.40058 26.7059 3.18993 27.3577 3.10726C28.0095 3.02459 28.6712 3.07154 29.3048 3.24539C29.9384 3.41925 30.5314 3.7166 31.0498 4.12035C32.0703 4.93671 32.7296 6.12108 32.8858 7.41861C33.042 8.71613 32.6826 10.0231 31.8849 11.0584C31.0873 12.0936 29.9151 12.7743 28.6206 12.9541C27.3261 13.1339 26.0103 12.7983 24.9608 12.0196ZM28.0053 5.57652C27.344 5.57652 26.7097 5.83922 26.2421 6.30684C25.7745 6.77445 25.5118 7.40867 25.5118 8.06997C25.5118 8.73127 25.7745 9.36549 26.2421 9.8331C26.7097 10.3007 27.344 10.5634 28.0053 10.5634C28.6666 10.5634 29.3008 10.3007 29.7684 9.8331C30.236 9.36549 30.4987 8.73127 30.4987 8.06997C30.4987 7.40867 30.236 6.77445 29.7684 6.30684C29.3008 5.83922 28.6666 5.57652 28.0053 5.57652ZM6.81097 15.5503H13.4685C13.1942 16.3308 13.0446 17.171 13.0446 18.0438H6.81097C6.48032 18.0438 6.16321 18.1751 5.9294 18.4089C5.6956 18.6427 5.56425 18.9598 5.56425 19.2905C5.56425 21.3276 6.37462 22.8386 7.65375 23.8659C8.24221 24.3397 8.94785 24.7212 9.74576 25.0005C9.15982 25.6233 8.70828 26.36 8.41924 27.1648C7.58176 26.8296 6.79796 26.3735 6.09286 25.8108C4.21779 24.3023 3.0708 22.0732 3.0708 19.2905C3.0708 18.2985 3.46485 17.3472 4.16627 16.6458C4.86769 15.9444 5.81902 15.5503 6.81097 15.5503ZM16.2063 15.5503C15.545 16.6963 15.366 18.0581 15.7088 19.3361C16.0515 20.6141 16.8879 21.7036 18.034 22.3649C19.18 23.0262 20.5418 23.2052 21.8198 22.8624C23.0978 22.5196 24.1873 21.6832 24.8486 20.5372C25.5099 19.3912 25.6888 18.0294 25.3461 16.7514C25.0033 15.4734 24.1669 14.3839 23.0209 13.7226C21.8748 13.0613 20.513 12.8824 19.235 13.2251C17.9571 13.5679 16.8676 14.4043 16.2063 15.5503ZM19.9664 15.6126C20.3317 15.5301 20.7109 15.5307 21.076 15.6143C21.4411 15.698 21.7827 15.8626 22.0757 16.0959C22.3686 16.3293 22.6054 16.6255 22.7686 16.9626C22.9318 17.2997 23.0171 17.6692 23.0184 18.0438C23.0184 18.2366 22.9976 18.4228 22.956 18.6023C22.856 19.0359 22.6417 19.4349 22.3355 19.7578C22.0292 20.0806 21.6421 20.3157 21.2144 20.4385C20.7866 20.5613 20.3338 20.5673 19.9029 20.4561C19.4721 20.3448 19.0788 20.1202 18.764 19.8057C18.4492 19.4911 18.2243 19.0981 18.1127 18.6673C18.001 18.2365 18.0067 17.7837 18.1292 17.3558C18.2516 16.928 18.4863 16.5407 18.8089 16.2342C19.1316 15.9276 19.5328 15.713 19.9664 15.6126ZM33.3936 23.8659C32.8051 24.3397 32.0995 24.7212 31.3016 25.0005C31.8866 25.6235 32.3373 26.3602 32.6256 27.1648C33.4734 26.8182 34.2588 26.3669 34.9545 25.8108C36.8321 24.3023 37.979 22.0732 37.979 19.2905C37.979 18.2985 37.585 17.3472 36.8836 16.6458C36.1822 15.9444 35.2308 15.5503 34.2389 15.5503H27.5814C27.8557 16.3308 28.0053 17.171 28.0053 18.0438H34.2389C34.5695 18.0438 34.8866 18.1751 35.1204 18.4089C35.3543 18.6427 35.4856 18.9598 35.4856 19.2905C35.4856 21.3276 34.6727 22.8386 33.3936 23.8659ZM26.7585 25.5241C27.7505 25.5241 28.7018 25.9181 29.4032 26.6196C30.1047 27.321 30.4987 28.2723 30.4987 29.2643C30.4987 32.0469 29.3542 34.2761 27.4767 35.7846C25.629 37.2682 23.1505 37.9913 20.5249 37.9913C17.8993 37.9913 15.4208 37.2682 13.5732 35.7846C11.6981 34.2761 10.5511 32.0469 10.5511 29.2643C10.5498 28.7727 10.6457 28.2858 10.8332 27.8314C11.0207 27.377 11.2961 26.9642 11.6437 26.6166C11.9912 26.2691 12.4041 25.9936 12.8585 25.8061C13.3128 25.6186 13.7998 25.5228 14.2913 25.5241H26.7585ZM26.7585 28.0175H14.2913C13.9607 28.0175 13.6435 28.1489 13.4097 28.3827C13.1759 28.6165 13.0446 28.9336 13.0446 29.2643C13.0446 31.3014 13.855 32.8124 15.1341 33.8397C16.4456 34.892 18.3307 35.4979 20.5249 35.4979C22.7192 35.4979 24.6042 34.892 25.9158 33.8397C27.1949 32.8124 28.0053 31.3014 28.0053 29.2643C28.0053 28.9336 27.8739 28.6165 27.6401 28.3827C27.4063 28.1489 27.0892 28.0175 26.7585 28.0175Z" fill="black"/>
</svg>
