<svg width="1280" height="76" viewBox="0 0 1280 76" fill="none" xmlns="http://www.w3.org/2000/svg">
<path d="M34.4167 46.1252C39.3811 38.902 52.8334 24.4585 66.9167 24.4585C69.4165 24.4585 71.6672 24.7429 73.6876 25.2358M73.6876 25.2358C83.0584 27.5189 88.5834 38.0002 88.5834 38.0002C88.5834 38.0002 83.0584 48.4814 73.6876 50.7645M73.6876 25.2358C67.1876 35.606 70.9793 46.5775 73.6876 50.7645M34.4167 29.8752C39.3811 37.0983 52.8334 51.5418 66.9167 51.5418C69.4165 51.5418 71.6672 51.2575 73.6876 50.7645M61.5001 33.9377C60.1459 35.2918 58.2501 38.8127 61.5001 42.0627" stroke="#4A51A3" stroke-width="4" stroke-linecap="round"/>
<path d="M142.395 51.624C140.155 51.624 138.331 51.128 136.923 50.136C135.547 49.144 134.859 47.496 134.859 45.192V22.392C135.019 22.328 135.259 22.264 135.579 22.2C135.931 22.104 136.299 22.056 136.683 22.056C138.027 22.056 138.699 22.632 138.699 23.784V29.304H146.571C146.667 29.464 146.763 29.688 146.859 29.976C146.955 30.232 147.003 30.52 147.003 30.84C147.003 31.928 146.523 32.472 145.563 32.472H138.699V44.952C138.699 46.232 139.051 47.144 139.755 47.688C140.491 48.2 141.515 48.456 142.827 48.456C143.371 48.456 143.979 48.36 144.651 48.168C145.323 47.976 145.883 47.752 146.331 47.496C146.523 47.688 146.699 47.928 146.859 48.216C147.019 48.504 147.099 48.84 147.099 49.224C147.099 49.928 146.683 50.504 145.851 50.952C145.019 51.4 143.867 51.624 142.395 51.624ZM156.75 50.904C156.59 50.968 156.35 51.032 156.03 51.096C155.71 51.192 155.358 51.24 154.974 51.24C153.598 51.24 152.91 50.664 152.91 49.512V28.92C153.07 28.856 153.31 28.792 153.63 28.728C153.982 28.632 154.35 28.584 154.734 28.584C156.078 28.584 156.75 29.176 156.75 30.36V50.904ZM152.334 21.816C152.334 21.144 152.558 20.584 153.006 20.136C153.486 19.656 154.094 19.416 154.83 19.416C155.566 19.416 156.158 19.656 156.606 20.136C157.054 20.584 157.278 21.144 157.278 21.816C157.278 22.488 157.054 23.064 156.606 23.544C156.158 23.992 155.566 24.216 154.83 24.216C154.094 24.216 153.486 23.992 153.006 23.544C152.558 23.064 152.334 22.488 152.334 21.816ZM183.208 47.352C183.208 47.992 183.064 48.488 182.776 48.84C182.52 49.192 182.104 49.544 181.528 49.896C180.888 50.312 179.976 50.696 178.792 51.048C177.608 51.432 176.248 51.624 174.712 51.624C172.984 51.624 171.4 51.4 169.96 50.952C168.52 50.504 167.272 49.816 166.216 48.888C165.192 47.928 164.392 46.728 163.816 45.288C163.272 43.816 163 42.056 163 40.008C163 37.928 163.288 36.152 163.864 34.68C164.44 33.176 165.208 31.944 166.168 30.984C167.16 30.024 168.312 29.32 169.624 28.872C170.968 28.424 172.392 28.2 173.896 28.2C174.92 28.2 175.912 28.328 176.872 28.584C177.832 28.84 178.664 29.16 179.368 29.544V19.896C179.528 19.832 179.768 19.768 180.088 19.704C180.44 19.608 180.792 19.56 181.144 19.56C182.52 19.56 183.208 20.136 183.208 21.288V47.352ZM179.368 33C178.728 32.552 177.992 32.168 177.16 31.848C176.328 31.528 175.368 31.368 174.28 31.368C173.288 31.368 172.344 31.528 171.448 31.848C170.584 32.136 169.816 32.632 169.144 33.336C168.472 34.008 167.928 34.904 167.512 36.024C167.128 37.144 166.936 38.504 166.936 40.104C166.936 43.048 167.64 45.176 169.048 46.488C170.456 47.8 172.328 48.456 174.664 48.456C175.784 48.456 176.696 48.344 177.4 48.12C178.136 47.864 178.792 47.56 179.368 47.208V33ZM193.234 42.168C194.098 46.36 196.85 48.456 201.49 48.456C202.834 48.456 204.05 48.232 205.138 47.784C206.226 47.336 207.09 46.856 207.73 46.344C208.498 46.792 208.882 47.4 208.882 48.168C208.882 48.616 208.674 49.048 208.258 49.464C207.874 49.88 207.33 50.248 206.626 50.568C205.954 50.888 205.154 51.144 204.226 51.336C203.33 51.528 202.354 51.624 201.298 51.624C197.586 51.624 194.642 50.616 192.466 48.6C190.322 46.584 189.25 43.64 189.25 39.768C189.25 37.944 189.506 36.328 190.018 34.92C190.562 33.48 191.298 32.264 192.226 31.272C193.186 30.28 194.322 29.528 195.634 29.016C196.946 28.472 198.37 28.2 199.906 28.2C201.346 28.2 202.674 28.44 203.89 28.92C205.106 29.4 206.146 30.088 207.01 30.984C207.906 31.848 208.594 32.888 209.074 34.104C209.586 35.288 209.842 36.6 209.842 38.04C209.842 38.744 209.682 39.256 209.362 39.576C209.042 39.864 208.594 40.04 208.018 40.104L193.234 42.168ZM199.858 31.32C197.906 31.32 196.29 32.008 195.01 33.384C193.73 34.728 193.058 36.664 192.994 39.192L206.194 37.368C206.034 35.608 205.41 34.168 204.322 33.048C203.266 31.896 201.778 31.32 199.858 31.32Z" fill="#4A51A3"/>
<path d="M244.417 46.1252C249.381 38.902 262.833 24.4585 276.917 24.4585C279.417 24.4585 281.667 24.7429 283.688 25.2358M283.688 25.2358C293.058 27.5189 298.583 38.0002 298.583 38.0002C298.583 38.0002 293.058 48.4814 283.688 50.7645M283.688 25.2358C277.188 35.606 280.979 46.5775 283.688 50.7645M244.417 29.8752C249.381 37.0983 262.833 51.5418 276.917 51.5418C279.417 51.5418 281.667 51.2575 283.688 50.7645M271.5 33.9377C270.146 35.2918 268.25 38.8127 271.5 42.0627" stroke="#4A51A3" stroke-width="4" stroke-linecap="round"/>
<path d="M352.395 51.624C350.155 51.624 348.331 51.128 346.923 50.136C345.547 49.144 344.859 47.496 344.859 45.192V22.392C345.019 22.328 345.259 22.264 345.579 22.2C345.931 22.104 346.299 22.056 346.683 22.056C348.027 22.056 348.699 22.632 348.699 23.784V29.304H356.571C356.667 29.464 356.763 29.688 356.859 29.976C356.955 30.232 357.003 30.52 357.003 30.84C357.003 31.928 356.523 32.472 355.563 32.472H348.699V44.952C348.699 46.232 349.051 47.144 349.755 47.688C350.491 48.2 351.515 48.456 352.827 48.456C353.371 48.456 353.979 48.36 354.651 48.168C355.323 47.976 355.883 47.752 356.331 47.496C356.523 47.688 356.699 47.928 356.859 48.216C357.019 48.504 357.099 48.84 357.099 49.224C357.099 49.928 356.683 50.504 355.851 50.952C355.019 51.4 353.867 51.624 352.395 51.624ZM366.75 50.904C366.59 50.968 366.35 51.032 366.03 51.096C365.71 51.192 365.358 51.24 364.974 51.24C363.598 51.24 362.91 50.664 362.91 49.512V28.92C363.07 28.856 363.31 28.792 363.63 28.728C363.982 28.632 364.35 28.584 364.734 28.584C366.078 28.584 366.75 29.176 366.75 30.36V50.904ZM362.334 21.816C362.334 21.144 362.558 20.584 363.006 20.136C363.486 19.656 364.094 19.416 364.83 19.416C365.566 19.416 366.158 19.656 366.606 20.136C367.054 20.584 367.278 21.144 367.278 21.816C367.278 22.488 367.054 23.064 366.606 23.544C366.158 23.992 365.566 24.216 364.83 24.216C364.094 24.216 363.486 23.992 363.006 23.544C362.558 23.064 362.334 22.488 362.334 21.816ZM393.208 47.352C393.208 47.992 393.064 48.488 392.776 48.84C392.52 49.192 392.104 49.544 391.528 49.896C390.888 50.312 389.976 50.696 388.792 51.048C387.608 51.432 386.248 51.624 384.712 51.624C382.984 51.624 381.4 51.4 379.96 50.952C378.52 50.504 377.272 49.816 376.216 48.888C375.192 47.928 374.392 46.728 373.816 45.288C373.272 43.816 373 42.056 373 40.008C373 37.928 373.288 36.152 373.864 34.68C374.44 33.176 375.208 31.944 376.168 30.984C377.16 30.024 378.312 29.32 379.624 28.872C380.968 28.424 382.392 28.2 383.896 28.2C384.92 28.2 385.912 28.328 386.872 28.584C387.832 28.84 388.664 29.16 389.368 29.544V19.896C389.528 19.832 389.768 19.768 390.088 19.704C390.44 19.608 390.792 19.56 391.144 19.56C392.52 19.56 393.208 20.136 393.208 21.288V47.352ZM389.368 33C388.728 32.552 387.992 32.168 387.16 31.848C386.328 31.528 385.368 31.368 384.28 31.368C383.288 31.368 382.344 31.528 381.448 31.848C380.584 32.136 379.816 32.632 379.144 33.336C378.472 34.008 377.928 34.904 377.512 36.024C377.128 37.144 376.936 38.504 376.936 40.104C376.936 43.048 377.64 45.176 379.048 46.488C380.456 47.8 382.328 48.456 384.664 48.456C385.784 48.456 386.696 48.344 387.4 48.12C388.136 47.864 388.792 47.56 389.368 47.208V33ZM403.234 42.168C404.098 46.36 406.85 48.456 411.49 48.456C412.834 48.456 414.05 48.232 415.138 47.784C416.226 47.336 417.09 46.856 417.73 46.344C418.498 46.792 418.882 47.4 418.882 48.168C418.882 48.616 418.674 49.048 418.258 49.464C417.874 49.88 417.33 50.248 416.626 50.568C415.954 50.888 415.154 51.144 414.226 51.336C413.33 51.528 412.354 51.624 411.298 51.624C407.586 51.624 404.642 50.616 402.466 48.6C400.322 46.584 399.25 43.64 399.25 39.768C399.25 37.944 399.506 36.328 400.018 34.92C400.562 33.48 401.298 32.264 402.226 31.272C403.186 30.28 404.322 29.528 405.634 29.016C406.946 28.472 408.37 28.2 409.906 28.2C411.346 28.2 412.674 28.44 413.89 28.92C415.106 29.4 416.146 30.088 417.01 30.984C417.906 31.848 418.594 32.888 419.074 34.104C419.586 35.288 419.842 36.6 419.842 38.04C419.842 38.744 419.682 39.256 419.362 39.576C419.042 39.864 418.594 40.04 418.018 40.104L403.234 42.168ZM409.858 31.32C407.906 31.32 406.29 32.008 405.01 33.384C403.73 34.728 403.058 36.664 402.994 39.192L416.194 37.368C416.034 35.608 415.41 34.168 414.322 33.048C413.266 31.896 411.778 31.32 409.858 31.32Z" fill="#4A51A3"/>
<path d="M454.417 46.1252C459.381 38.902 472.833 24.4585 486.917 24.4585C489.417 24.4585 491.667 24.7429 493.688 25.2358M493.688 25.2358C503.058 27.5189 508.583 38.0002 508.583 38.0002C508.583 38.0002 503.058 48.4814 493.688 50.7645M493.688 25.2358C487.188 35.606 490.979 46.5775 493.688 50.7645M454.417 29.8752C459.381 37.0983 472.833 51.5418 486.917 51.5418C489.417 51.5418 491.667 51.2575 493.688 50.7645M481.5 33.9377C480.146 35.2918 478.25 38.8127 481.5 42.0627" stroke="#4A51A3" stroke-width="4" stroke-linecap="round"/>
<path d="M562.395 51.624C560.155 51.624 558.331 51.128 556.923 50.136C555.547 49.144 554.859 47.496 554.859 45.192V22.392C555.019 22.328 555.259 22.264 555.579 22.2C555.931 22.104 556.299 22.056 556.683 22.056C558.027 22.056 558.699 22.632 558.699 23.784V29.304H566.571C566.667 29.464 566.763 29.688 566.859 29.976C566.955 30.232 567.003 30.52 567.003 30.84C567.003 31.928 566.523 32.472 565.563 32.472H558.699V44.952C558.699 46.232 559.051 47.144 559.755 47.688C560.491 48.2 561.515 48.456 562.827 48.456C563.371 48.456 563.979 48.36 564.651 48.168C565.323 47.976 565.883 47.752 566.331 47.496C566.523 47.688 566.699 47.928 566.859 48.216C567.019 48.504 567.099 48.84 567.099 49.224C567.099 49.928 566.683 50.504 565.851 50.952C565.019 51.4 563.867 51.624 562.395 51.624ZM576.75 50.904C576.59 50.968 576.35 51.032 576.03 51.096C575.71 51.192 575.358 51.24 574.974 51.24C573.598 51.24 572.91 50.664 572.91 49.512V28.92C573.07 28.856 573.31 28.792 573.63 28.728C573.982 28.632 574.35 28.584 574.734 28.584C576.078 28.584 576.75 29.176 576.75 30.36V50.904ZM572.334 21.816C572.334 21.144 572.558 20.584 573.006 20.136C573.486 19.656 574.094 19.416 574.83 19.416C575.566 19.416 576.158 19.656 576.606 20.136C577.054 20.584 577.278 21.144 577.278 21.816C577.278 22.488 577.054 23.064 576.606 23.544C576.158 23.992 575.566 24.216 574.83 24.216C574.094 24.216 573.486 23.992 573.006 23.544C572.558 23.064 572.334 22.488 572.334 21.816ZM603.208 47.352C603.208 47.992 603.064 48.488 602.776 48.84C602.52 49.192 602.104 49.544 601.528 49.896C600.888 50.312 599.976 50.696 598.792 51.048C597.608 51.432 596.248 51.624 594.712 51.624C592.984 51.624 591.4 51.4 589.96 50.952C588.52 50.504 587.272 49.816 586.216 48.888C585.192 47.928 584.392 46.728 583.816 45.288C583.272 43.816 583 42.056 583 40.008C583 37.928 583.288 36.152 583.864 34.68C584.44 33.176 585.208 31.944 586.168 30.984C587.16 30.024 588.312 29.32 589.624 28.872C590.968 28.424 592.392 28.2 593.896 28.2C594.92 28.2 595.912 28.328 596.872 28.584C597.832 28.84 598.664 29.16 599.368 29.544V19.896C599.528 19.832 599.768 19.768 600.088 19.704C600.44 19.608 600.792 19.56 601.144 19.56C602.52 19.56 603.208 20.136 603.208 21.288V47.352ZM599.368 33C598.728 32.552 597.992 32.168 597.16 31.848C596.328 31.528 595.368 31.368 594.28 31.368C593.288 31.368 592.344 31.528 591.448 31.848C590.584 32.136 589.816 32.632 589.144 33.336C588.472 34.008 587.928 34.904 587.512 36.024C587.128 37.144 586.936 38.504 586.936 40.104C586.936 43.048 587.64 45.176 589.048 46.488C590.456 47.8 592.328 48.456 594.664 48.456C595.784 48.456 596.696 48.344 597.4 48.12C598.136 47.864 598.792 47.56 599.368 47.208V33ZM613.234 42.168C614.098 46.36 616.85 48.456 621.49 48.456C622.834 48.456 624.05 48.232 625.138 47.784C626.226 47.336 627.09 46.856 627.73 46.344C628.498 46.792 628.882 47.4 628.882 48.168C628.882 48.616 628.674 49.048 628.258 49.464C627.874 49.88 627.33 50.248 626.626 50.568C625.954 50.888 625.154 51.144 624.226 51.336C623.33 51.528 622.354 51.624 621.298 51.624C617.586 51.624 614.642 50.616 612.466 48.6C610.322 46.584 609.25 43.64 609.25 39.768C609.25 37.944 609.506 36.328 610.018 34.92C610.562 33.48 611.298 32.264 612.226 31.272C613.186 30.28 614.322 29.528 615.634 29.016C616.946 28.472 618.37 28.2 619.906 28.2C621.346 28.2 622.674 28.44 623.89 28.92C625.106 29.4 626.146 30.088 627.01 30.984C627.906 31.848 628.594 32.888 629.074 34.104C629.586 35.288 629.842 36.6 629.842 38.04C629.842 38.744 629.682 39.256 629.362 39.576C629.042 39.864 628.594 40.04 628.018 40.104L613.234 42.168ZM619.858 31.32C617.906 31.32 616.29 32.008 615.01 33.384C613.73 34.728 613.058 36.664 612.994 39.192L626.194 37.368C626.034 35.608 625.41 34.168 624.322 33.048C623.266 31.896 621.778 31.32 619.858 31.32Z" fill="#4A51A3"/>
<path d="M664.417 46.1252C669.381 38.902 682.833 24.4585 696.917 24.4585C699.417 24.4585 701.667 24.7429 703.688 25.2358M703.688 25.2358C713.058 27.5189 718.583 38.0002 718.583 38.0002C718.583 38.0002 713.058 48.4814 703.688 50.7645M703.688 25.2358C697.188 35.606 700.979 46.5775 703.688 50.7645M664.417 29.8752C669.381 37.0983 682.833 51.5418 696.917 51.5418C699.417 51.5418 701.667 51.2575 703.688 50.7645M691.5 33.9377C690.146 35.2918 688.25 38.8127 691.5 42.0627" stroke="#4A51A3" stroke-width="4" stroke-linecap="round"/>
<path d="M772.395 51.624C770.155 51.624 768.331 51.128 766.923 50.136C765.547 49.144 764.859 47.496 764.859 45.192V22.392C765.019 22.328 765.259 22.264 765.579 22.2C765.931 22.104 766.299 22.056 766.683 22.056C768.027 22.056 768.699 22.632 768.699 23.784V29.304H776.571C776.667 29.464 776.763 29.688 776.859 29.976C776.955 30.232 777.003 30.52 777.003 30.84C777.003 31.928 776.523 32.472 775.563 32.472H768.699V44.952C768.699 46.232 769.051 47.144 769.755 47.688C770.491 48.2 771.515 48.456 772.827 48.456C773.371 48.456 773.979 48.36 774.651 48.168C775.323 47.976 775.883 47.752 776.331 47.496C776.523 47.688 776.699 47.928 776.859 48.216C777.019 48.504 777.099 48.84 777.099 49.224C777.099 49.928 776.683 50.504 775.851 50.952C775.019 51.4 773.867 51.624 772.395 51.624ZM786.75 50.904C786.59 50.968 786.35 51.032 786.03 51.096C785.71 51.192 785.358 51.24 784.974 51.24C783.598 51.24 782.91 50.664 782.91 49.512V28.92C783.07 28.856 783.31 28.792 783.63 28.728C783.982 28.632 784.35 28.584 784.734 28.584C786.078 28.584 786.75 29.176 786.75 30.36V50.904ZM782.334 21.816C782.334 21.144 782.558 20.584 783.006 20.136C783.486 19.656 784.094 19.416 784.83 19.416C785.566 19.416 786.158 19.656 786.606 20.136C787.054 20.584 787.278 21.144 787.278 21.816C787.278 22.488 787.054 23.064 786.606 23.544C786.158 23.992 785.566 24.216 784.83 24.216C784.094 24.216 783.486 23.992 783.006 23.544C782.558 23.064 782.334 22.488 782.334 21.816ZM813.208 47.352C813.208 47.992 813.064 48.488 812.776 48.84C812.52 49.192 812.104 49.544 811.528 49.896C810.888 50.312 809.976 50.696 808.792 51.048C807.608 51.432 806.248 51.624 804.712 51.624C802.984 51.624 801.4 51.4 799.96 50.952C798.52 50.504 797.272 49.816 796.216 48.888C795.192 47.928 794.392 46.728 793.816 45.288C793.272 43.816 793 42.056 793 40.008C793 37.928 793.288 36.152 793.864 34.68C794.44 33.176 795.208 31.944 796.168 30.984C797.16 30.024 798.312 29.32 799.624 28.872C800.968 28.424 802.392 28.2 803.896 28.2C804.92 28.2 805.912 28.328 806.872 28.584C807.832 28.84 808.664 29.16 809.368 29.544V19.896C809.528 19.832 809.768 19.768 810.088 19.704C810.44 19.608 810.792 19.56 811.144 19.56C812.52 19.56 813.208 20.136 813.208 21.288V47.352ZM809.368 33C808.728 32.552 807.992 32.168 807.16 31.848C806.328 31.528 805.368 31.368 804.28 31.368C803.288 31.368 802.344 31.528 801.448 31.848C800.584 32.136 799.816 32.632 799.144 33.336C798.472 34.008 797.928 34.904 797.512 36.024C797.128 37.144 796.936 38.504 796.936 40.104C796.936 43.048 797.64 45.176 799.048 46.488C800.456 47.8 802.328 48.456 804.664 48.456C805.784 48.456 806.696 48.344 807.4 48.12C808.136 47.864 808.792 47.56 809.368 47.208V33ZM823.234 42.168C824.098 46.36 826.85 48.456 831.49 48.456C832.834 48.456 834.05 48.232 835.138 47.784C836.226 47.336 837.09 46.856 837.73 46.344C838.498 46.792 838.882 47.4 838.882 48.168C838.882 48.616 838.674 49.048 838.258 49.464C837.874 49.88 837.33 50.248 836.626 50.568C835.954 50.888 835.154 51.144 834.226 51.336C833.33 51.528 832.354 51.624 831.298 51.624C827.586 51.624 824.642 50.616 822.466 48.6C820.322 46.584 819.25 43.64 819.25 39.768C819.25 37.944 819.506 36.328 820.018 34.92C820.562 33.48 821.298 32.264 822.226 31.272C823.186 30.28 824.322 29.528 825.634 29.016C826.946 28.472 828.37 28.2 829.906 28.2C831.346 28.2 832.674 28.44 833.89 28.92C835.106 29.4 836.146 30.088 837.01 30.984C837.906 31.848 838.594 32.888 839.074 34.104C839.586 35.288 839.842 36.6 839.842 38.04C839.842 38.744 839.682 39.256 839.362 39.576C839.042 39.864 838.594 40.04 838.018 40.104L823.234 42.168ZM829.858 31.32C827.906 31.32 826.29 32.008 825.01 33.384C823.73 34.728 823.058 36.664 822.994 39.192L836.194 37.368C836.034 35.608 835.41 34.168 834.322 33.048C833.266 31.896 831.778 31.32 829.858 31.32Z" fill="#4A51A3"/>
<path d="M874.417 46.1252C879.381 38.902 892.833 24.4585 906.917 24.4585C909.416 24.4585 911.667 24.7429 913.687 25.2358M913.687 25.2358C923.058 27.5189 928.583 38.0002 928.583 38.0002C928.583 38.0002 923.058 48.4814 913.687 50.7645M913.687 25.2358C907.187 35.606 910.979 46.5775 913.687 50.7645M874.417 29.8752C879.381 37.0983 892.833 51.5418 906.917 51.5418C909.416 51.5418 911.667 51.2575 913.687 50.7645M901.5 33.9377C900.146 35.2918 898.25 38.8127 901.5 42.0627" stroke="#4A51A3" stroke-width="4" stroke-linecap="round"/>
<path d="M982.395 51.624C980.155 51.624 978.331 51.128 976.923 50.136C975.547 49.144 974.859 47.496 974.859 45.192V22.392C975.019 22.328 975.259 22.264 975.579 22.2C975.931 22.104 976.299 22.056 976.683 22.056C978.027 22.056 978.699 22.632 978.699 23.784V29.304H986.571C986.667 29.464 986.763 29.688 986.859 29.976C986.955 30.232 987.003 30.52 987.003 30.84C987.003 31.928 986.523 32.472 985.563 32.472H978.699V44.952C978.699 46.232 979.051 47.144 979.755 47.688C980.491 48.2 981.515 48.456 982.827 48.456C983.371 48.456 983.979 48.36 984.651 48.168C985.323 47.976 985.883 47.752 986.331 47.496C986.523 47.688 986.699 47.928 986.859 48.216C987.019 48.504 987.099 48.84 987.099 49.224C987.099 49.928 986.683 50.504 985.851 50.952C985.019 51.4 983.867 51.624 982.395 51.624ZM996.75 50.904C996.59 50.968 996.35 51.032 996.03 51.096C995.71 51.192 995.358 51.24 994.974 51.24C993.598 51.24 992.91 50.664 992.91 49.512V28.92C993.07 28.856 993.31 28.792 993.63 28.728C993.982 28.632 994.35 28.584 994.734 28.584C996.078 28.584 996.75 29.176 996.75 30.36V50.904ZM992.334 21.816C992.334 21.144 992.558 20.584 993.006 20.136C993.486 19.656 994.094 19.416 994.83 19.416C995.566 19.416 996.158 19.656 996.606 20.136C997.054 20.584 997.278 21.144 997.278 21.816C997.278 22.488 997.054 23.064 996.606 23.544C996.158 23.992 995.566 24.216 994.83 24.216C994.094 24.216 993.486 23.992 993.006 23.544C992.558 23.064 992.334 22.488 992.334 21.816ZM1023.21 47.352C1023.21 47.992 1023.06 48.488 1022.78 48.84C1022.52 49.192 1022.1 49.544 1021.53 49.896C1020.89 50.312 1019.98 50.696 1018.79 51.048C1017.61 51.432 1016.25 51.624 1014.71 51.624C1012.98 51.624 1011.4 51.4 1009.96 50.952C1008.52 50.504 1007.27 49.816 1006.22 48.888C1005.19 47.928 1004.39 46.728 1003.82 45.288C1003.27 43.816 1003 42.056 1003 40.008C1003 37.928 1003.29 36.152 1003.86 34.68C1004.44 33.176 1005.21 31.944 1006.17 30.984C1007.16 30.024 1008.31 29.32 1009.62 28.872C1010.97 28.424 1012.39 28.2 1013.9 28.2C1014.92 28.2 1015.91 28.328 1016.87 28.584C1017.83 28.84 1018.66 29.16 1019.37 29.544V19.896C1019.53 19.832 1019.77 19.768 1020.09 19.704C1020.44 19.608 1020.79 19.56 1021.14 19.56C1022.52 19.56 1023.21 20.136 1023.21 21.288V47.352ZM1019.37 33C1018.73 32.552 1017.99 32.168 1017.16 31.848C1016.33 31.528 1015.37 31.368 1014.28 31.368C1013.29 31.368 1012.34 31.528 1011.45 31.848C1010.58 32.136 1009.82 32.632 1009.14 33.336C1008.47 34.008 1007.93 34.904 1007.51 36.024C1007.13 37.144 1006.94 38.504 1006.94 40.104C1006.94 43.048 1007.64 45.176 1009.05 46.488C1010.46 47.8 1012.33 48.456 1014.66 48.456C1015.78 48.456 1016.7 48.344 1017.4 48.12C1018.14 47.864 1018.79 47.56 1019.37 47.208V33ZM1033.23 42.168C1034.1 46.36 1036.85 48.456 1041.49 48.456C1042.83 48.456 1044.05 48.232 1045.14 47.784C1046.23 47.336 1047.09 46.856 1047.73 46.344C1048.5 46.792 1048.88 47.4 1048.88 48.168C1048.88 48.616 1048.67 49.048 1048.26 49.464C1047.87 49.88 1047.33 50.248 1046.63 50.568C1045.95 50.888 1045.15 51.144 1044.23 51.336C1043.33 51.528 1042.35 51.624 1041.3 51.624C1037.59 51.624 1034.64 50.616 1032.47 48.6C1030.32 46.584 1029.25 43.64 1029.25 39.768C1029.25 37.944 1029.51 36.328 1030.02 34.92C1030.56 33.48 1031.3 32.264 1032.23 31.272C1033.19 30.28 1034.32 29.528 1035.63 29.016C1036.95 28.472 1038.37 28.2 1039.91 28.2C1041.35 28.2 1042.67 28.44 1043.89 28.92C1045.11 29.4 1046.15 30.088 1047.01 30.984C1047.91 31.848 1048.59 32.888 1049.07 34.104C1049.59 35.288 1049.84 36.6 1049.84 38.04C1049.84 38.744 1049.68 39.256 1049.36 39.576C1049.04 39.864 1048.59 40.04 1048.02 40.104L1033.23 42.168ZM1039.86 31.32C1037.91 31.32 1036.29 32.008 1035.01 33.384C1033.73 34.728 1033.06 36.664 1032.99 39.192L1046.19 37.368C1046.03 35.608 1045.41 34.168 1044.32 33.048C1043.27 31.896 1041.78 31.32 1039.86 31.32Z" fill="#4A51A3"/>
<path d="M1084.42 46.1252C1089.38 38.902 1102.83 24.4585 1116.92 24.4585C1119.42 24.4585 1121.67 24.7429 1123.69 25.2358M1123.69 25.2358C1133.06 27.5189 1138.58 38.0002 1138.58 38.0002C1138.58 38.0002 1133.06 48.4814 1123.69 50.7645M1123.69 25.2358C1117.19 35.606 1120.98 46.5775 1123.69 50.7645M1084.42 29.8752C1089.38 37.0983 1102.83 51.5418 1116.92 51.5418C1119.42 51.5418 1121.67 51.2575 1123.69 50.7645M1111.5 33.9377C1110.15 35.2918 1108.25 38.8127 1111.5 42.0627" stroke="#4A51A3" stroke-width="4" stroke-linecap="round"/>
<path d="M1192.39 51.624C1190.15 51.624 1188.33 51.128 1186.92 50.136C1185.55 49.144 1184.86 47.496 1184.86 45.192V22.392C1185.02 22.328 1185.26 22.264 1185.58 22.2C1185.93 22.104 1186.3 22.056 1186.68 22.056C1188.03 22.056 1188.7 22.632 1188.7 23.784V29.304H1196.57C1196.67 29.464 1196.76 29.688 1196.86 29.976C1196.95 30.232 1197 30.52 1197 30.84C1197 31.928 1196.52 32.472 1195.56 32.472H1188.7V44.952C1188.7 46.232 1189.05 47.144 1189.75 47.688C1190.49 48.2 1191.51 48.456 1192.83 48.456C1193.37 48.456 1193.98 48.36 1194.65 48.168C1195.32 47.976 1195.88 47.752 1196.33 47.496C1196.52 47.688 1196.7 47.928 1196.86 48.216C1197.02 48.504 1197.1 48.84 1197.1 49.224C1197.1 49.928 1196.68 50.504 1195.85 50.952C1195.02 51.4 1193.87 51.624 1192.39 51.624ZM1206.75 50.904C1206.59 50.968 1206.35 51.032 1206.03 51.096C1205.71 51.192 1205.36 51.24 1204.97 51.24C1203.6 51.24 1202.91 50.664 1202.91 49.512V28.92C1203.07 28.856 1203.31 28.792 1203.63 28.728C1203.98 28.632 1204.35 28.584 1204.73 28.584C1206.08 28.584 1206.75 29.176 1206.75 30.36V50.904ZM1202.33 21.816C1202.33 21.144 1202.56 20.584 1203.01 20.136C1203.49 19.656 1204.09 19.416 1204.83 19.416C1205.57 19.416 1206.16 19.656 1206.61 20.136C1207.05 20.584 1207.28 21.144 1207.28 21.816C1207.28 22.488 1207.05 23.064 1206.61 23.544C1206.16 23.992 1205.57 24.216 1204.83 24.216C1204.09 24.216 1203.49 23.992 1203.01 23.544C1202.56 23.064 1202.33 22.488 1202.33 21.816ZM1233.21 47.352C1233.21 47.992 1233.06 48.488 1232.78 48.84C1232.52 49.192 1232.1 49.544 1231.53 49.896C1230.89 50.312 1229.98 50.696 1228.79 51.048C1227.61 51.432 1226.25 51.624 1224.71 51.624C1222.98 51.624 1221.4 51.4 1219.96 50.952C1218.52 50.504 1217.27 49.816 1216.22 48.888C1215.19 47.928 1214.39 46.728 1213.82 45.288C1213.27 43.816 1213 42.056 1213 40.008C1213 37.928 1213.29 36.152 1213.86 34.68C1214.44 33.176 1215.21 31.944 1216.17 30.984C1217.16 30.024 1218.31 29.32 1219.62 28.872C1220.97 28.424 1222.39 28.2 1223.9 28.2C1224.92 28.2 1225.91 28.328 1226.87 28.584C1227.83 28.84 1228.66 29.16 1229.37 29.544V19.896C1229.53 19.832 1229.77 19.768 1230.09 19.704C1230.44 19.608 1230.79 19.56 1231.14 19.56C1232.52 19.56 1233.21 20.136 1233.21 21.288V47.352ZM1229.37 33C1228.73 32.552 1227.99 32.168 1227.16 31.848C1226.33 31.528 1225.37 31.368 1224.28 31.368C1223.29 31.368 1222.34 31.528 1221.45 31.848C1220.58 32.136 1219.82 32.632 1219.14 33.336C1218.47 34.008 1217.93 34.904 1217.51 36.024C1217.13 37.144 1216.94 38.504 1216.94 40.104C1216.94 43.048 1217.64 45.176 1219.05 46.488C1220.46 47.8 1222.33 48.456 1224.66 48.456C1225.78 48.456 1226.7 48.344 1227.4 48.12C1228.14 47.864 1228.79 47.56 1229.37 47.208V33ZM1243.23 42.168C1244.1 46.36 1246.85 48.456 1251.49 48.456C1252.83 48.456 1254.05 48.232 1255.14 47.784C1256.23 47.336 1257.09 46.856 1257.73 46.344C1258.5 46.792 1258.88 47.4 1258.88 48.168C1258.88 48.616 1258.67 49.048 1258.26 49.464C1257.87 49.88 1257.33 50.248 1256.63 50.568C1255.95 50.888 1255.15 51.144 1254.23 51.336C1253.33 51.528 1252.35 51.624 1251.3 51.624C1247.59 51.624 1244.64 50.616 1242.47 48.6C1240.32 46.584 1239.25 43.64 1239.25 39.768C1239.25 37.944 1239.51 36.328 1240.02 34.92C1240.56 33.48 1241.3 32.264 1242.23 31.272C1243.19 30.28 1244.32 29.528 1245.63 29.016C1246.95 28.472 1248.37 28.2 1249.91 28.2C1251.35 28.2 1252.67 28.44 1253.89 28.92C1255.11 29.4 1256.15 30.088 1257.01 30.984C1257.91 31.848 1258.59 32.888 1259.07 34.104C1259.59 35.288 1259.84 36.6 1259.84 38.04C1259.84 38.744 1259.68 39.256 1259.36 39.576C1259.04 39.864 1258.59 40.04 1258.02 40.104L1243.23 42.168ZM1249.86 31.32C1247.91 31.32 1246.29 32.008 1245.01 33.384C1243.73 34.728 1243.06 36.664 1242.99 39.192L1256.19 37.368C1256.03 35.608 1255.41 34.168 1254.32 33.048C1253.27 31.896 1251.78 31.32 1249.86 31.32Z" fill="#4A51A3"/>
</svg>
