<svg width="57" height="53" viewBox="0 0 57 53" fill="none" xmlns="http://www.w3.org/2000/svg">
<path d="M33.7106 25.8281H37.3011V29.4187H33.7106C31.2331 29.4187 28.7915 28.7903 26.5294 27.6234C22.0412 29.9573 16.6554 29.9573 12.1672 27.6234C9.90514 28.7903 7.44561 29.4187 4.98607 29.4187H1.39551V25.8281H4.98607C7.48151 25.8281 9.97695 24.9843 12.1672 23.4404C16.5477 26.5103 22.149 26.5103 26.5294 23.4404C28.7197 24.9843 31.2151 25.8281 33.7106 25.8281ZM33.7106 15.0564H37.3011V18.647H33.7106C31.2331 18.647 28.7915 18.0186 26.5294 16.8517C22.0412 19.1856 16.6554 19.1856 12.1672 16.8517C9.90514 18.0186 7.44561 18.647 4.98607 18.647H1.39551V15.0564H4.98607C7.48151 15.0564 9.97695 14.2126 12.1672 12.6687C16.5477 15.7386 22.149 15.7386 26.5294 12.6687C28.7197 14.2126 31.2151 15.0564 33.7106 15.0564ZM33.7106 36.5998H37.3011V40.1904H33.7106C31.2331 40.1904 28.7915 39.562 26.5294 38.3951C22.0412 40.7289 16.6554 40.7289 12.1672 38.3951C9.90514 39.562 7.44561 40.1904 4.98607 40.1904H1.39551V36.5998H4.98607C7.48151 36.5998 9.97695 35.756 12.1672 34.2121C16.5477 37.282 22.149 37.282 26.5294 34.2121C28.7197 35.756 31.2151 36.5998 33.7106 36.5998Z" fill="black"/>
<path fill-rule="evenodd" clip-rule="evenodd" d="M34.5768 17.7208C35.2 17.0976 36.2104 17.0976 36.8336 17.7208L44.8811 25.7683L52.9286 17.7208C53.5518 17.0976 54.5622 17.0976 55.1854 17.7208C55.8086 18.344 55.8086 19.3545 55.1854 19.9777L47.1379 28.0251L55.1854 36.0726C55.8086 36.6958 55.8086 37.7062 55.1854 38.3294C54.5622 38.9526 53.5518 38.9526 52.9286 38.3294L44.8811 30.2819L36.8336 38.3294C36.2104 38.9526 35.2 38.9526 34.5768 38.3294C33.9536 37.7062 33.9536 36.6958 34.5768 36.0726L42.6243 28.0251L34.5768 19.9777C33.9536 19.3545 33.9536 18.344 34.5768 17.7208Z" fill="#FF0000"/>
</svg>
