<svg width="57" height="52" viewBox="0 0 57 52" fill="none" xmlns="http://www.w3.org/2000/svg">
<path d="M42.838 25.3286H46.4286V28.9192H42.838C40.3605 28.9192 37.9189 28.2908 35.6569 27.1239C31.1687 29.4577 25.7828 29.4577 21.2946 27.1239C19.0326 28.2908 16.573 28.9192 14.1135 28.9192H10.5229V25.3286H14.1135C16.609 25.3286 19.1044 24.4848 21.2946 22.9409C25.6751 26.0108 31.2764 26.0108 35.6569 22.9409C37.8471 24.4848 40.3426 25.3286 42.838 25.3286ZM42.838 14.5569H46.4286V18.1475H42.838C40.3605 18.1475 37.9189 17.5191 35.6569 16.3522C31.1687 18.6861 25.7828 18.6861 21.2946 16.3522C19.0326 17.5191 16.573 18.1475 14.1135 18.1475H10.5229V14.5569H14.1135C16.609 14.5569 19.1044 13.7131 21.2946 12.1692C25.6751 15.2391 31.2764 15.2391 35.6569 12.1692C37.8471 13.7131 40.3426 14.5569 42.838 14.5569ZM42.838 36.1003H46.4286V39.6909H42.838C40.3605 39.6909 37.9189 39.0625 35.6569 37.8956C31.1687 40.2294 25.7828 40.2294 21.2946 37.8956C19.0326 39.0625 16.573 39.6909 14.1135 39.6909H10.5229V36.1003H14.1135C16.609 36.1003 19.1044 35.2565 21.2946 33.7126C25.6751 36.7825 31.2764 36.7825 35.6569 33.7126C37.8471 35.2565 40.3426 36.1003 42.838 36.1003Z" fill="black"/>
</svg>
