<svg width="57" height="53" viewBox="0 0 57 53" fill="none" xmlns="http://www.w3.org/2000/svg">
<path d="M41.7739 29.7452H45.0985V33.0698H41.7739C39.4799 33.0698 37.2192 32.488 35.1247 31.4075C30.969 33.5685 25.9821 33.5685 21.8263 31.4075C19.7318 32.488 17.4545 33.0698 15.1771 33.0698H11.8525V29.7452H15.1771C17.4877 29.7452 19.7983 28.9639 21.8263 27.5343C25.8823 30.3769 31.0687 30.3769 35.1247 27.5343C37.1527 28.9639 39.4633 29.7452 41.7739 29.7452ZM41.7739 39.719H45.0985V43.0436H41.7739C39.4799 43.0436 37.2192 42.4618 35.1247 41.3813C30.969 43.5422 25.9821 43.5422 21.8263 41.3813C19.7318 42.4618 17.4545 43.0436 15.1771 43.0436H11.8525V39.719H15.1771C17.4877 39.719 19.7983 38.9377 21.8263 37.5081C25.8823 40.3506 31.0687 40.3506 35.1247 37.5081C37.1527 38.9377 39.4633 39.719 41.7739 39.719ZM20.164 9.79761L13.5148 16.4468H18.5017V24.7583H21.8263V16.4468H26.8132M36.787 9.79761L30.1378 16.4468H35.1247V24.7583H38.4493V16.4468H43.4362" fill="black"/>
</svg>
