<svg width="38" height="38" viewBox="0 0 38 38" fill="none" xmlns="http://www.w3.org/2000/svg">
<path fill-rule="evenodd" clip-rule="evenodd" d="M24.4545 14.9091C24.4545 16.3558 23.8798 17.7432 22.8569 18.7661C21.834 19.789 20.4466 20.3637 19 20.3637C17.5533 20.3637 16.1659 19.789 15.143 18.7661C14.1201 17.7432 13.5454 16.3558 13.5454 14.9091C13.5454 13.4625 14.1201 12.0751 15.143 11.0522C16.1659 10.0293 17.5533 9.45459 19 9.45459C20.4466 9.45459 21.834 10.0293 22.8569 11.0522C23.8798 12.0751 24.4545 13.4625 24.4545 14.9091ZM21.7272 14.9091C21.7272 15.6325 21.4399 16.3261 20.9284 16.8376C20.417 17.3491 19.7233 17.6364 19 17.6364C18.2766 17.6364 17.5829 17.3491 17.0715 16.8376C16.56 16.3261 16.2727 15.6325 16.2727 14.9091C16.2727 14.1858 16.56 13.4921 17.0715 12.9807C17.5829 12.4692 18.2766 12.1819 19 12.1819C19.7233 12.1819 20.417 12.4692 20.9284 12.9807C21.4399 13.4921 21.7272 14.1858 21.7272 14.9091Z" fill="white"/>
<path fill-rule="evenodd" clip-rule="evenodd" d="M19 4C10.7159 4 4 10.7159 4 19C4 27.2841 10.7159 34 19 34C27.2841 34 34 27.2841 34 19C34 10.7159 27.2841 4 19 4ZM6.72727 19C6.72727 21.85 7.69955 24.4736 9.32909 26.5573C10.4735 25.0544 11.9499 23.8365 13.6429 22.9986C15.3359 22.1607 17.1997 21.7256 19.0886 21.7273C20.9532 21.7255 22.7935 22.1494 24.4695 22.9665C26.1454 23.7837 27.6127 24.9726 28.7595 26.4427C29.9411 24.8931 30.7366 23.0844 31.0803 21.1663C31.424 19.2481 31.306 17.2757 30.7361 15.4123C30.1662 13.5488 29.1608 11.8478 27.8029 10.4501C26.4451 9.05231 24.774 7.99799 22.9278 7.37433C21.0816 6.75067 19.1135 6.5756 17.1862 6.8636C15.2589 7.1516 13.4279 7.8944 11.8447 9.03053C10.2615 10.1667 8.97156 11.6635 8.08168 13.3971C7.19179 15.1307 6.72752 17.0513 6.72727 19ZM19 31.2727C16.1827 31.277 13.4504 30.3077 11.2655 28.5291C12.1449 27.2701 13.3155 26.2422 14.6775 25.5328C16.0396 24.8233 17.5529 24.4535 19.0886 24.4545C20.6052 24.4533 22.1002 24.814 23.4494 25.5065C24.7987 26.199 25.9632 27.2034 26.8464 28.4364C24.6445 30.2728 21.8672 31.2768 19 31.2727Z" fill="white"/>
</svg>
